<svg xmlns="http://www.w3.org/2000/svg" width="22" height="14.673" viewBox="0 0 22 14.673">
  <path id="Icon_ionic-ios-arrow-round-forward" data-name="Icon ionic-ios-arrow-round-forward" d="M15.845,11.533a1,1,0,0,1,.008,1.406l-4.646,4.654H28.889a.993.993,0,0,1,0,1.987H11.214l4.646,4.654a1.006,1.006,0,0,1-.008,1.406.989.989,0,0,1-1.4-.008l-6.3-6.342h0a1.116,1.116,0,0,1-.206-.313.948.948,0,0,1-.076-.382,1,1,0,0,1,.283-.7l6.3-6.342A.973.973,0,0,1,15.845,11.533Z" transform="translate(-7.875 -11.252)" opacity="0.5"/>
</svg>
