<svg xmlns="http://www.w3.org/2000/svg" width="17.968" height="22" viewBox="0 0 17.968 22">
  <g id="delete" transform="translate(0 0)" opacity="0.5">
    <path id="Path_23" data-name="Path 23" d="M17.912,4.917l-.486-1.456a1.355,1.355,0,0,0-1.287-.927H12.057V1.2a1.206,1.206,0,0,0-1.2-1.2H7.114a1.206,1.206,0,0,0-1.2,1.2V2.534H1.828a1.355,1.355,0,0,0-1.287.927L.055,4.917A1.09,1.09,0,0,0,1.089,6.352H1.6L2.715,20.171A2,2,0,0,0,4.7,22h8.8a2,2,0,0,0,1.981-1.829L16.6,6.352h.281a1.09,1.09,0,0,0,1.034-1.435ZM7.2,1.289h3.569V2.534H7.2Zm7,18.778a.7.7,0,0,1-.7.644H4.7a.7.7,0,0,1-.7-.644L2.89,6.352H15.3Zm-12.829-15,.4-1.194a.067.067,0,0,1,.064-.046H16.14a.067.067,0,0,1,.064.046l.4,1.194Zm0,0" transform="translate(0)"/>
    <path id="Path_24" data-name="Path 24" d="M268.907,176.326h.034a.605.605,0,0,0,.643-.509l.605-9.676a.585.585,0,0,0-.61-.564.611.611,0,0,0-.677.508l-.605,9.676A.585.585,0,0,0,268.907,176.326Zm0,0" transform="translate(-256.768 -157.383)"/>
    <path id="Path_25" data-name="Path 25" d="M106.428,175.821a.606.606,0,0,0,.643.508h.036a.584.584,0,0,0,.608-.565l-.634-9.676a.612.612,0,0,0-.679-.507.584.584,0,0,0-.608.565Zm0,0" transform="translate(-101.248 -157.386)"/>
    <path id="Path_26" data-name="Path 26" d="M194.9,176.329a.6.6,0,0,0,.645-.537v-9.676a.655.655,0,0,0-1.289,0v9.676A.6.6,0,0,0,194.9,176.329Zm0,0" transform="translate(-185.908 -157.386)"/>
  </g>
</svg>
