<svg xmlns="http://www.w3.org/2000/svg" width="26.4" height="22" viewBox="0 0 26.4 22">
  <g id="reply_1_" data-name="reply (1)" transform="translate(0 -2)" opacity="0.5">
    <path id="Path_27" data-name="Path 27" d="M25.225,24a.825.825,0,0,1-.722-.426l-1.122-2.027a10.177,10.177,0,0,0-8.331-5.232v4.659a.825.825,0,0,1-1.383.608l-9.9-9.075a.825.825,0,0,1,0-1.216l9.9-9.075a.825.825,0,0,1,1.383.608v4.7a11.841,11.841,0,0,1,11,11.8v3.85a.824.824,0,0,1-.618.8A.84.84,0,0,1,25.225,24Zm-11-9.35h.253A11.83,11.83,0,0,1,24.4,20.04v-.715A10.186,10.186,0,0,0,14.225,9.15a.825.825,0,0,1-.825-.825V4.7L5.546,11.9,13.4,19.1V15.475A.825.825,0,0,1,14.225,14.65Z" transform="translate(0.35 0)"/>
    <path id="Path_28" data-name="Path 28" d="M10.45,21.8a.828.828,0,0,1-.567-.224L.259,12.5a.827.827,0,0,1,0-1.2L9.884,2.224a.826.826,0,1,1,1.133,1.2L2.028,11.9l8.988,8.474A.825.825,0,0,1,10.45,21.8Z" transform="translate(0 0)"/>
  </g>
</svg>
