<svg xmlns="http://www.w3.org/2000/svg" width="16.354" height="18" viewBox="0 0 16.354 18">
  <g id="Group_44" data-name="Group 44" transform="translate(-30.707 -120.882)" opacity="0.5">
    <path id="Path_33" data-name="Path 33" d="M181.345,133.15c0-1.6,0-3.2,0-4.8a.317.317,0,0,0-.214-.331,2.366,2.366,0,0,1-1.367-1.773,2.426,2.426,0,0,1,1.33-2.651.378.378,0,0,0,.251-.406c-.016-.471-.012-.943,0-1.414a.849.849,0,1,1,1.7-.009c0,.5.008,1.007,0,1.509a.272.272,0,0,0,.186.288,2.449,2.449,0,0,1,.1,4.412.461.461,0,0,0-.291.5q.013,4.739,0,9.478a.851.851,0,1,1-1.7-.006c0-.764,0-1.529,0-2.293v-2.5Zm.857-6.565a.788.788,0,0,0,.782-.772.791.791,0,1,0-1.581,0A.79.79,0,0,0,182.2,126.585Z" transform="translate(-143.309 -0.001)"/>
    <path id="Path_34" data-name="Path 34" d="M34,126.621c0,1.605,0,3.211,0,4.816a.323.323,0,0,0,.211.346,2.458,2.458,0,0,1-.006,4.465.3.3,0,0,0-.205.33c.011.509,0,1.019,0,1.529a.834.834,0,0,1-1.667.023c-.009-.535-.006-1.07,0-1.605a.245.245,0,0,0-.166-.259,2.386,2.386,0,0,1-1.464-2.236,2.354,2.354,0,0,1,1.4-2.234.339.339,0,0,0,.231-.353q-.009-4.787,0-9.574a.846.846,0,0,1,.826-.929.825.825,0,0,1,.842.828Q34,124.194,34,126.621Zm-1.611,7.4a.8.8,0,0,0,.789.794.844.844,0,0,0,.792-.808.8.8,0,0,0-.812-.772A.787.787,0,0,0,32.392,134.017Z" transform="translate(0 -0.054)"/>
    <path id="Path_35" data-name="Path 35" d="M332.168,124.969c0,1.064,0,2.128,0,3.192a.286.286,0,0,0,.194.3,2.456,2.456,0,0,1,0,4.467.3.3,0,0,0-.2.317c.006,1.586,0,3.173,0,4.759a.838.838,0,0,1-1.613.355.8.8,0,0,1-.056-.355c0-1.567,0-3.135,0-4.7a.373.373,0,0,0-.239-.393,2.456,2.456,0,0,1,.011-4.44.353.353,0,0,0,.228-.377c-.006-2.109.007-4.218-.012-6.327a.882.882,0,0,1,.831-.887.852.852,0,0,1,.845.9q0,1.6,0,3.192Zm-.059,5.736a.8.8,0,0,0-.773-.806.825.825,0,0,0-.805.806.8.8,0,0,0,.825.773A.769.769,0,0,0,332.109,130.705Z" transform="translate(-286.732 0)"/>
  </g>
</svg>
