<svg xmlns="http://www.w3.org/2000/svg" width="26.4" height="22" viewBox="0 0 26.4 22">
  <path id="reply" d="M25.575,24a.825.825,0,0,1-.724-.43l-.023-.042A14.029,14.029,0,0,0,12.56,16.3H11v4.675a.825.825,0,0,1-1.4.592L.251,12.492a.824.824,0,0,1,0-1.184L9.6,2.233a.825.825,0,0,1,1.4.592V7.5A15.693,15.693,0,0,1,26.4,23.175a.825.825,0,0,1-.62.8A.814.814,0,0,1,25.575,24Zm-15.4-9.35H12.56a15.684,15.684,0,0,1,11.84,5.4A14.05,14.05,0,0,0,10.725,9.15h-.55a.825.825,0,0,1-.825-.825V4.775L2.01,11.9l7.34,7.125v-3.55a.825.825,0,0,1,.825-.825Z" transform="translate(0 -2)" opacity="0.5"/>
</svg>
